<svg width="134" height="133" viewBox="0 0 134 133" fill="none" xmlns="http://www.w3.org/2000/svg">
<path d="M92.6047 78.1351C92.5005 78.6697 92.2792 79.1894 92.3161 79.7368C92.6815 84.8268 91.2122 89.4882 89.1697 94.0047C87.3512 98.0312 84.6707 101.68 80.8194 104.766C79.3197 105.966 77.6197 107.039 75.8617 108.279C79.3381 108.819 82.8133 108.87 85.9764 110.601C82.7704 110.157 79.5342 109.512 76.3696 109.325C73.1988 109.137 70.0929 109.402 66.6776 109.475C69.0684 106.601 72.546 104.168 71.326 100.072C73.4804 101.689 73.1562 103.098 69.7198 108.297C71.4199 108.448 72.9136 108.537 74.1917 107.853C81.3788 104.012 85.7884 98.7323 88.4541 92.5435C90.0111 88.9276 90.9006 85.1327 91.1892 81.2241C91.4844 77.2528 91.3062 73.23 90.3939 69.1023C89.159 63.4818 87.1632 57.9311 83.9917 52.442C80.2367 45.9466 75.1665 39.8586 68.0578 34.5295C60.139 28.5869 50.9347 24.1972 40.2641 21.787C39.6115 21.6389 38.9612 21.449 38.3228 21.2558C38.1912 21.2143 38.0996 21.0752 37.9151 20.9193C38.1706 20.3732 38.896 20.5869 39.4857 20.7123C45.2951 21.9416 50.8044 23.8311 56.048 26.2868C66.8078 31.32 74.7328 38.0098 80.8119 45.7755C85.6603 51.9698 88.6179 58.401 90.7326 64.9368C91.1034 66.084 91.0729 67.2368 91.2918 68.387C91.3848 68.8805 91.6673 69.3828 91.8577 69.8767C92.1107 72.6285 92.3575 75.3797 92.6047 78.1351Z" fill="url(#paint0_linear_146_437)"/>
<defs>
<linearGradient id="paint0_linear_146_437" x1="90.1899" y1="54.4678" x2="32.6246" y2="80.2435" gradientUnits="userSpaceOnUse">
<stop stop-color="#F55F29"/>
<stop offset="0.985529" stop-color="#FDC221"/>
</linearGradient>
</defs>
</svg>
