<svg width="134" height="132" viewBox="0 0 134 132" fill="none" xmlns="http://www.w3.org/2000/svg">
<path d="M92.6047 77.6363C92.5005 78.1709 92.2792 78.6906 92.3161 79.238C92.6815 84.328 91.2122 88.9895 89.1697 93.5059C87.3512 97.5324 84.6707 101.181 80.8194 104.267C79.3197 105.468 77.6197 106.54 75.8617 107.78C79.3381 108.32 82.8133 108.371 85.9764 110.102C82.7704 109.658 79.5342 109.013 76.3696 108.826C73.1988 108.638 70.0929 108.904 66.6776 108.976C69.0684 106.103 72.546 103.67 71.326 99.573C73.4804 101.191 73.1562 102.599 69.7198 107.798C71.4199 107.949 72.9136 108.039 74.1917 107.354C81.3788 103.513 85.7884 98.2335 88.4541 92.0447C90.0111 88.4288 90.9006 84.6339 91.1892 80.7253C91.4844 76.754 91.3062 72.7312 90.3939 68.6035C89.159 62.983 87.1632 57.4323 83.9917 51.9432C80.2367 45.4478 75.1665 39.3598 68.0578 34.0308C60.139 28.0881 50.9347 23.6985 40.2641 21.2882C39.6115 21.1402 38.9612 20.9502 38.3228 20.7571C38.1912 20.7155 38.0996 20.5765 37.9151 20.4205C38.1706 19.8744 38.896 20.0881 39.4857 20.2135C45.2951 21.4429 50.8044 23.3323 56.048 25.788C66.8078 30.8213 74.7328 37.511 80.8119 45.2767C85.6603 51.471 88.6179 57.9022 90.7326 64.438C91.1034 65.5852 91.0729 66.738 91.2918 67.8882C91.3848 68.3817 91.6673 68.884 91.8577 69.3779C92.1107 72.1297 92.3575 74.8809 92.6047 77.6363Z" fill="url(#paint0_linear_146_367)"/>
<defs>
<linearGradient id="paint0_linear_146_367" x1="90.1899" y1="53.969" x2="32.6246" y2="79.7447" gradientUnits="userSpaceOnUse">
<stop stop-color="#F55F29"/>
<stop offset="0.985529" stop-color="#FDC221"/>
</linearGradient>
</defs>
</svg>
