<svg width="1817" height="517" viewBox="0 0 1817 517" fill="none" xmlns="http://www.w3.org/2000/svg">
<g opacity="0.3">
<path d="M1653 82.9521H1816.91" stroke="url(#paint0_linear_146_67)" stroke-width="3"/>
<path d="M1693.98 153.929L1775.94 11.9754" stroke="url(#paint1_linear_146_67)" stroke-width="3"/>
<path d="M1775.94 153.929L1693.98 11.9754" stroke="url(#paint2_linear_146_67)" stroke-width="3"/>
<path d="M1664.44 124.71L1805.48 41.194" stroke="url(#paint3_linear_146_67)" stroke-width="3"/>
<path d="M1735.86 164.904L1734.05 1.00012" stroke="url(#paint4_linear_146_67)" stroke-width="3"/>
<path d="M1806.38 123.146L1663.53 42.7578" stroke="url(#paint5_linear_146_67)" stroke-width="3"/>
<path d="M1655.79 104.164L1814.12 61.74" stroke="url(#paint6_linear_146_67)" stroke-width="3"/>
<path d="M1713.75 162.117L1756.17 3.78782" stroke="url(#paint7_linear_146_67)" stroke-width="3"/>
<path d="M1792.91 140.904L1677 24.9995" stroke="url(#paint8_linear_146_67)" stroke-width="3"/>
<path d="M1677.65 141.54L1792.27 24.3649" stroke="url(#paint9_linear_146_67)" stroke-width="3"/>
<path d="M1757.04 161.878L1712.87 4.02603" stroke="url(#paint10_linear_146_67)" stroke-width="3"/>
<path d="M1814.35 103.291L1655.56 62.6133" stroke="url(#paint11_linear_146_67)" stroke-width="3"/>
</g>
<path d="M1739.5 77C1770.43 132.667 1843.5 285.5 1638 447C1530.19 531.723 1020.53 567 1020.53 373C1020.53 291.653 1172.1 198 1280.87 285.5C1389.65 373 1262.28 547 821.5 480C495.716 430.48 107.7 170 1.5 332" stroke="url(#paint12_linear_146_67)" stroke-width="2" stroke-dasharray="8 8"/>
<defs>
<linearGradient id="paint0_linear_146_67" x1="1815.95" y1="83.2904" x2="1815.93" y2="85.5069" gradientUnits="userSpaceOnUse">
<stop stop-color="#F55F29"/>
<stop offset="0.985529" stop-color="#FDC221"/>
</linearGradient>
<linearGradient id="paint1_linear_146_67" x1="1775.75" y1="12.9794" x2="1777.66" y2="14.1057" gradientUnits="userSpaceOnUse">
<stop stop-color="#F55F29"/>
<stop offset="0.985529" stop-color="#FDC221"/>
</linearGradient>
<linearGradient id="paint2_linear_146_67" x1="1694.75" y1="12.6412" x2="1696.68" y2="11.551" gradientUnits="userSpaceOnUse">
<stop stop-color="#F55F29"/>
<stop offset="0.985529" stop-color="#FDC221"/>
</linearGradient>
<linearGradient id="paint3_linear_146_67" x1="1804.82" y1="41.9762" x2="1805.93" y2="43.8941" gradientUnits="userSpaceOnUse">
<stop stop-color="#F55F29"/>
<stop offset="0.985529" stop-color="#FDC221"/>
</linearGradient>
<linearGradient id="paint4_linear_146_67" x1="1734.4" y1="1.96043" x2="1736.62" y2="1.9568" gradientUnits="userSpaceOnUse">
<stop stop-color="#F55F29"/>
<stop offset="0.985529" stop-color="#FDC221"/>
</linearGradient>
<linearGradient id="paint5_linear_146_67" x1="1664.54" y1="42.9359" x2="1665.64" y2="41.0144" gradientUnits="userSpaceOnUse">
<stop stop-color="#F55F29"/>
<stop offset="0.985529" stop-color="#FDC221"/>
</linearGradient>
<linearGradient id="paint6_linear_146_67" x1="1813.28" y1="62.3162" x2="1813.83" y2="64.4626" gradientUnits="userSpaceOnUse">
<stop stop-color="#F55F29"/>
<stop offset="0.985529" stop-color="#FDC221"/>
</linearGradient>
<linearGradient id="paint7_linear_146_67" x1="1756.25" y1="4.8066" x2="1758.38" y2="5.40037" gradientUnits="userSpaceOnUse">
<stop stop-color="#F55F29"/>
<stop offset="0.985529" stop-color="#FDC221"/>
</linearGradient>
<linearGradient id="paint8_linear_146_67" x1="1677.93" y1="25.4421" x2="1679.51" y2="23.8894" gradientUnits="userSpaceOnUse">
<stop stop-color="#F55F29"/>
<stop offset="0.985529" stop-color="#FDC221"/>
</linearGradient>
<linearGradient id="paint9_linear_146_67" x1="1791.83" y1="25.2906" x2="1793.4" y2="26.8554" gradientUnits="userSpaceOnUse">
<stop stop-color="#F55F29"/>
<stop offset="0.985529" stop-color="#FDC221"/>
</linearGradient>
<linearGradient id="paint10_linear_146_67" x1="1713.46" y1="4.86334" x2="1715.6" y2="4.28612" gradientUnits="userSpaceOnUse">
<stop stop-color="#F55F29"/>
<stop offset="0.985529" stop-color="#FDC221"/>
</linearGradient>
<linearGradient id="paint11_linear_146_67" x1="1656.58" y1="62.5249" x2="1657.15" y2="60.3828" gradientUnits="userSpaceOnUse">
<stop stop-color="#F55F29"/>
<stop offset="0.985529" stop-color="#FDC221"/>
</linearGradient>
<linearGradient id="paint12_linear_146_67" x1="1767.29" y1="225.153" x2="1445.43" y2="1074.14" gradientUnits="userSpaceOnUse">
<stop stop-color="#F55F29"/>
<stop offset="0.985529" stop-color="#FDC221"/>
</linearGradient>
</defs>
</svg>
