<svg width="58" height="58" viewBox="0 0 58 58" fill="none" xmlns="http://www.w3.org/2000/svg">
<path d="M38.28 29C38.28 30.8354 37.7357 32.6296 36.716 34.1557C35.6963 35.6818 34.247 36.8712 32.5513 37.5736C30.8556 38.276 28.9897 38.4598 27.1896 38.1017C25.3894 37.7436 23.7359 36.8598 22.438 35.5619C21.1402 34.2641 20.2564 32.6106 19.8983 30.8104C19.5402 29.0103 19.724 27.1444 20.4264 25.4487C21.1288 23.753 22.3182 22.3037 23.8443 21.284C25.3704 20.2643 27.1646 19.72 29 19.72C31.4589 19.7276 33.8148 20.7078 35.5535 22.4465C37.2922 24.1852 38.2724 26.5411 38.28 29ZM58 16.24V41.76C58 46.0671 56.289 50.1978 53.2434 53.2434C50.1978 56.289 46.0671 58 41.76 58H16.24C11.9329 58 7.80218 56.289 4.75659 53.2434C1.71099 50.1978 0 46.0671 0 41.76V16.24C0 11.9329 1.71099 7.80218 4.75659 4.75659C7.80218 1.71099 11.9329 0 16.24 0H41.76C46.0671 0 50.1978 1.71099 53.2434 4.75659C56.289 7.80218 58 11.9329 58 16.24ZM42.92 29C42.92 26.2469 42.1036 23.5556 40.5741 21.2665C39.0445 18.9773 36.8705 17.1932 34.327 16.1396C31.7834 15.086 28.9846 14.8104 26.2843 15.3475C23.5841 15.8846 21.1038 17.2103 19.1571 19.1571C17.2103 21.1038 15.8846 23.5841 15.3475 26.2843C14.8104 28.9846 15.086 31.7834 16.1396 34.327C17.1932 36.8705 18.9773 39.0445 21.2665 40.5741C23.5556 42.1036 26.2469 42.92 29 42.92C32.6918 42.92 36.2324 41.4534 38.8429 38.8429C41.4534 36.2324 42.92 32.6918 42.92 29ZM47.56 13.92C47.56 13.2317 47.3559 12.5589 46.9735 11.9866C46.5911 11.4143 46.0476 10.9683 45.4117 10.7049C44.7758 10.4415 44.0761 10.3726 43.4011 10.5069C42.726 10.6411 42.106 10.9726 41.6193 11.4593C41.1326 11.946 40.8011 12.566 40.6669 13.2411C40.5326 13.9161 40.6015 14.6159 40.8649 15.2517C41.1283 15.8876 41.5743 16.4311 42.1466 16.8135C42.7189 17.1959 43.3917 17.4 44.08 17.4C45.003 17.4 45.8881 17.0334 46.5407 16.3807C47.1934 15.7281 47.56 14.843 47.56 13.92Z" fill="white"/>
</svg>
