<svg width="50" height="58" viewBox="0 0 50 58" fill="none" xmlns="http://www.w3.org/2000/svg">
<path d="M43.7735 12.4041C43.3841 12.2018 43.005 11.98 42.6377 11.7396C41.5697 11.0297 40.5904 10.1932 39.721 9.24812C37.5457 6.74579 36.7333 4.20721 36.434 2.42984H36.4461C36.1961 0.954536 36.2994 0 36.3151 0H26.4074V38.5173C26.4074 39.0345 26.4074 39.5456 26.3857 40.0506C26.3857 40.1135 26.3797 40.1715 26.3761 40.2391C26.3761 40.2669 26.3761 40.2959 26.3701 40.3249V40.3467C26.2657 41.7287 25.8251 43.0637 25.087 44.2343C24.3489 45.4049 23.336 46.3752 22.1374 47.0598C20.8881 47.7743 19.4753 48.1491 18.038 48.1473C13.4219 48.1473 9.68067 44.363 9.68067 39.6894C9.68067 35.0158 13.4219 31.2314 18.038 31.2314C18.9118 31.2306 19.7803 31.3689 20.6111 31.641L20.6231 21.4988C18.1009 21.1713 15.5386 21.3728 13.0978 22.0907C10.657 22.8085 8.3907 24.0272 6.44181 25.6698C4.73412 27.1615 3.29846 28.9414 2.19944 30.9294C1.78121 31.6543 0.203239 34.5675 0.0121525 39.2955C-0.108028 41.979 0.693575 44.7593 1.07575 45.9083V45.9325C1.31611 46.6091 2.24751 48.9181 3.76539 50.8647C4.98935 52.4261 6.43542 53.7977 8.05703 54.9353V54.9112L8.08107 54.9353C12.8775 58.2122 18.1955 57.9971 18.1955 57.9971C19.116 57.9596 22.1999 57.9971 25.7019 56.3285C29.5862 54.4786 31.7975 51.7225 31.7975 51.7225C33.2102 50.0758 34.3335 48.1991 35.1193 46.1729C36.0158 43.8035 36.3151 40.9617 36.3151 39.8259V19.3916C36.4352 19.4641 38.036 20.5286 38.036 20.5286C38.036 20.5286 40.3423 22.0147 43.9405 22.9826C46.522 23.6713 50 23.8163 50 23.8163V13.9278C48.7814 14.0607 46.3069 13.674 43.7735 12.4041Z" fill="white"/>
</svg>
