<svg width="35" height="35" viewBox="0 0 35 35" fill="none" xmlns="http://www.w3.org/2000/svg">
<path d="M34.3216 7.03401C34.3193 7.03401 34.317 7.03401 34.3148 7.03401H32.0149V6.24703C32.0273 5.93555 31.8258 5.65562 31.5265 5.56861C29.9298 5.15019 28.2856 4.94038 26.635 4.94446C23.9213 4.94446 20.2239 5.55504 17.4898 8.33659C14.7761 5.5279 11.0516 4.94446 8.34464 4.94446C6.69403 4.94038 5.04986 5.15019 3.45319 5.56861C3.15383 5.65562 2.95234 5.93555 2.96472 6.24703V7.02722H0.678426C0.303765 7.02722 0 7.33099 0 7.70565V29.3746C0 29.7492 0.303765 30.053 0.678426 30.053C0.794946 30.0527 0.90943 30.0223 1.01085 29.9648C1.0787 29.9309 7.86296 26.2199 17.3338 28.608H17.4355H17.4966C17.5507 28.6145 17.6053 28.6145 17.6594 28.608C27.1574 26.1995 33.9417 29.9038 33.9824 29.9648C34.1922 30.086 34.4509 30.086 34.6608 29.9648C34.8694 29.8444 34.9986 29.6223 35 29.3814V7.71243C35 7.33777 34.6963 7.03401 34.3216 7.03401ZM1.35685 28.2959V8.39086H2.97829V25.4058C2.97405 25.7804 3.27434 26.0876 3.649 26.0918C3.68563 26.0923 3.72227 26.0897 3.75848 26.0842C5.16197 25.8699 6.57895 25.7565 7.99864 25.745C9.96523 25.7109 11.9236 26.0067 13.7924 26.6202C9.57217 26.1098 5.29147 26.6867 1.35685 28.2959ZM7.99864 24.3949C6.76467 24.3977 5.53214 24.477 4.30801 24.6324V6.78299C5.6289 6.48872 6.97778 6.33854 8.33107 6.33523C10.8684 6.33523 14.3691 6.91868 16.7978 9.65952L16.8182 26.5591C15.4071 25.6365 12.6526 24.3949 7.99864 24.3949ZM18.175 9.65952C20.6038 6.94581 24.1045 6.33523 26.6418 6.33523C27.995 6.33921 29.3439 6.48932 30.6649 6.78299V24.6324C29.4476 24.4756 28.2218 24.394 26.9946 24.3881C22.3677 24.3881 19.6065 25.6297 18.175 26.5523V9.65952ZM33.6364 28.2959C29.6934 26.6822 25.4028 26.1053 21.1737 26.6202C23.0513 26.0045 25.019 25.7086 26.9946 25.745C28.4232 25.753 29.8493 25.8641 31.2619 26.0774C31.6323 26.1337 31.9782 25.8789 32.0344 25.5085C32.0399 25.4723 32.0425 25.4356 32.0421 25.399V8.39086H33.6635L33.6364 28.2959Z" fill="url(#paint0_linear_161_710)"/>
<defs>
<linearGradient id="paint0_linear_161_710" x1="34.7941" y1="13.4376" x2="7.09458" y2="38.5506" gradientUnits="userSpaceOnUse">
<stop stop-color="#F55F29"/>
<stop offset="0.985529" stop-color="#FDC221"/>
</linearGradient>
</defs>
</svg>
