<svg width="15" height="15" viewBox="0 0 15 15" fill="none" xmlns="http://www.w3.org/2000/svg">
<g clip-path="url(#clip0_85_320)">
<path d="M6.13333 6.9661C6.13333 6.9661 7.51751 6.86333 7.51751 5.23972C7.51751 3.61625 6.38497 2.82422 4.95024 2.82422H2.30952H2.23195H0.229492V11.8965H2.23195H2.30952H4.95024C4.95024 11.8965 7.83207 11.9877 7.83207 9.21882C7.83222 9.21882 7.95789 6.9661 6.13333 6.9661ZM2.30952 4.43684H4.61049H4.95039C4.95039 4.43684 5.59217 4.43684 5.59217 5.38065C5.59217 6.32447 5.21455 6.46128 4.7867 6.46128H2.30952V4.43684ZM4.82854 10.2843H2.30952V7.85967H4.95024C4.95024 7.85967 5.90672 7.84746 5.90672 9.10567C5.90672 10.1548 5.20722 10.2738 4.82854 10.2843Z" fill="#2674D1"/>
<path d="M13.4673 3.35938H9.72412V4.47665H13.4673V3.35938Z" fill="#2674D1"/>
<path d="M11.6758 5.13281C8.18701 5.13281 8.19007 8.61825 8.19007 8.61825C8.19007 8.61825 7.95094 12.0864 11.676 12.0864C11.676 12.0864 14.7804 12.2639 14.7804 9.67368H13.1838C13.1838 9.67368 13.2371 10.6496 11.7292 10.6496C11.7292 10.6496 10.1328 10.7563 10.1328 9.07068H14.8336C14.8336 9.07068 15.3478 5.13281 11.6758 5.13281ZM13.095 7.85981H10.1148C10.1148 7.85981 10.3098 6.46142 11.7112 6.46142C13.1128 6.46127 13.095 7.85981 13.095 7.85981Z" fill="#2674D1"/>
</g>
<defs>
<clipPath id="clip0_85_320">
<rect width="14.6286" height="14.6286" fill="white" transform="translate(0.229492 0.142578)"/>
</clipPath>
</defs>
</svg>
