<svg width="63" height="20" viewBox="0 0 63 20" fill="none" xmlns="http://www.w3.org/2000/svg">
<path opacity="0.1" fillRule="evenodd" clipRule="evenodd" d="M1 11.6466C1 11.6466 3.41262 11.1148 6.15563 12.3926C11.3727 14.8228 11.6703 10.3724 13.6048 8.22649C15.3747 6.26321 16.8405 7.46108 18.8111 9.86201C20.2646 11.6328 22.3827 14.6052 24.5764 14.1267C26.5816 13.6893 28.0031 10.203 30.7825 9.3164C32.9853 8.6137 34.7755 10.5442 37.3121 9.86201C40.7532 8.93655 41.2658 5.39153 43.7252 5.39153C46.7606 5.39153 48.6616 11.7173 51.423 11.7173C54.168 11.7173 55.5802 5.46386 58.583 7.36222C60.8787 8.81354 62.2042 3.48828 62.2042 3.48828V19.0402L1 19.0402L1 11.6466Z" fill="url(#paint0_linear_21_3444)"/>
<path d="M1 9.52075C1 9.52075 3.41262 8.99655 6.15563 10.2559C11.3727 12.651 11.6703 8.26494 13.6048 6.15009C15.3747 4.21523 16.8405 5.39576 18.8111 7.76194C20.2646 9.50709 22.3827 12.4365 24.5764 11.9649C26.5816 11.5338 28.0031 8.09801 30.7825 7.22422C32.9853 6.5317 34.7755 8.43426 37.3121 7.76194C40.7532 6.84987 41.2658 3.35616 43.7252 3.35616C46.7606 3.35616 48.6616 9.5904 51.423 9.5904C54.168 9.5904 55.5802 3.42745 58.583 5.29834C60.8787 6.72865 62.2042 1.48047 62.2042 1.48047" stroke="#490796" stroke-width="1.00335" stroke-linecap="round" stroke-linejoin="round"/>
<defs>
<linearGradient id="paint0_linear_21_3444" x1="12.0612" y1="9.10954" x2="12.0612" y2="19.0402" gradientUnits="userSpaceOnUse">
<stop stop-color="#568600"/>
<stop offset="1" stop-color="white" stop-opacity="0.01"/>
</linearGradient>
</defs>
</svg>
