<svg width="18" height="18" viewBox="0 0 18 18" fill="none" xmlns="http://www.w3.org/2000/svg">
<g clip-path="url(#clip0_85_328)">
<path d="M12.1515 17.0851C12.166 17.0808 12.1797 17.075 12.1942 17.0699C21.0355 13.5573 18.5898 0.314453 9.00002 0.314453C4.18741 0.314453 0.314308 4.2375 0.314308 9.00017C0.314308 15.0273 6.41892 19.3282 12.1515 17.0851ZM4.13675 14.8334C4.75343 13.7969 6.74897 10.8727 10.1552 9.86367C10.8674 11.6797 11.3669 13.7983 11.4161 16.2006C8.83499 17.0685 6.11275 16.4844 4.13675 14.8334ZM12.4837 15.7475C12.3889 13.4393 11.9177 11.3924 11.246 9.61903C12.753 9.38379 14.4974 9.54085 16.4755 10.3334C16.055 12.6938 14.5458 14.6777 12.4837 15.7475ZM16.5892 9.2108C14.4105 8.39217 12.4902 8.29011 10.8284 8.60714C10.5714 8.02809 10.3014 7.47148 10.0155 6.95903C12.5655 5.94063 14.0725 4.69929 14.7471 4.04207C15.9377 5.42021 16.6449 7.2044 16.5892 9.2108ZM13.9762 3.26904C13.3624 3.85316 11.917 5.03297 9.44516 5.99781C8.23351 4.08116 6.93789 2.72908 6.11709 1.97198C8.74307 0.890606 11.7715 1.3524 13.9762 3.26904ZM5.07915 2.50253C5.69873 3.04756 7.05876 4.35621 8.37103 6.37998C6.56875 6.96047 4.30901 7.3868 1.56071 7.44687C1.99789 5.35217 3.30364 3.57739 5.07915 2.50253ZM1.42318 8.53693C4.49937 8.48699 6.98928 8.00131 8.95732 7.34409C9.22947 7.82108 9.48787 8.34078 9.73614 8.88074C6.3089 9.97224 4.16715 12.79 3.34707 14.0625C2.02395 12.5859 1.29435 10.6591 1.42318 8.53693Z" fill="#DE778C"/>
</g>
<defs>
<clipPath id="clip0_85_328">
<rect width="17.3714" height="17.3714" fill="white" transform="translate(0.314308 0.314453)"/>
</clipPath>
</defs>
</svg>
