<svg width="331" height="218" viewBox="0 0 331 218" fill="none" xmlns="http://www.w3.org/2000/svg">
<g clip-path="url(#clip0_45_343)">
<ellipse cx="165.625" cy="59.5999" rx="56.9407" ry="57.5843" fill="white"/>
<g filter="url(#filter0_i_45_343)">
<path d="M175.064 73.2725C175.064 73.2725 181.925 103.848 189.197 112.102C211.991 137.975 228.724 50.1767 223.386 14.8157C214.429 -44.5238 71.9295 99.4965 96.4878 94.1885C121.046 88.8805 175.064 73.2725 175.064 73.2725Z" fill="url(#paint0_linear_45_343)"/>
</g>
<path d="M173.83 75.3863C174.027 76.2118 174.292 77.2999 174.617 78.5861C175.378 81.5986 176.47 85.705 177.792 90.0751C179.113 94.4404 180.67 99.0946 182.366 103.193C184.042 107.245 185.921 110.929 187.937 113.217C190.956 116.643 194.133 118.481 197.433 118.489C200.724 118.497 203.642 116.684 206.151 113.932C211.129 108.472 215.273 98.4775 218.464 86.8783C224.871 63.5919 227.765 32.554 225.051 14.5709C223.87 6.75203 220.39 1.85518 214.933 -0.175637C209.663 -2.13698 202.988 -1.23951 195.755 1.33901C181.229 6.51709 163.156 18.9523 146.292 32.9369C129.39 46.9523 113.529 62.6704 103.411 74.5828C98.3815 80.5053 94.6657 85.6086 92.9995 89.1399C92.5779 90.0335 92.2562 90.8903 92.0904 91.6783C91.9306 92.4378 91.8742 93.3246 92.2078 94.1486C92.5869 95.0849 93.3541 95.6648 94.2576 95.8956C95.0711 96.1033 95.9701 96.0294 96.8502 95.8392C109.182 93.1739 128.869 87.9326 145.439 83.3683C153.731 81.0841 161.255 78.966 166.706 77.419C169.431 76.6455 171.638 76.0146 173.165 75.5771C173.403 75.5087 173.625 75.445 173.83 75.3863Z" stroke="black" stroke-width="3.37224"/>
<mask id="path-4-inside-1_45_343" fill="white">
<path d="M76.8361 24.6954C76.8361 12.1697 86.9901 2.01562 99.5158 2.01562V24.9517H76.8361V24.6954Z"/>
</mask>
<path d="M70.0916 24.6954C70.0916 11.2385 81.0006 0.329504 94.4575 0.329504H99.5158V3.70175C90.715 3.70175 83.5805 13.1009 83.5805 24.6954H70.0916ZM99.5158 24.9517H76.8361H99.5158ZM70.0916 24.9517V24.6954C70.0916 11.2385 81.0006 0.329504 94.4575 0.329504L99.5158 3.70175C90.715 3.70175 83.5805 13.1009 83.5805 24.6954V24.9517H70.0916ZM99.5158 2.01562V24.9517V2.01562Z" fill="white" mask="url(#path-4-inside-1_45_343)"/>
<mask id="path-6-inside-2_45_343" fill="white">
<path d="M76.8361 94.5038C76.8361 107.03 86.9901 117.184 99.5158 117.184V94.2475H76.8361V94.5038Z"/>
</mask>
<path d="M70.0916 94.5038C70.0916 107.961 81.0006 118.87 94.4575 118.87H99.5158V115.497C90.715 115.497 83.5805 106.098 83.5805 94.5038H70.0916ZM99.5158 94.2475H76.8361H99.5158ZM70.0916 94.2475V94.5038C70.0916 107.961 81.0006 118.87 94.4575 118.87L99.5158 115.497C90.715 115.497 83.5805 106.098 83.5805 94.5038V94.2475H70.0916ZM99.5158 117.184V94.2475V117.184Z" fill="white" mask="url(#path-6-inside-2_45_343)"/>
<mask id="path-8-inside-3_45_343" fill="white">
<path d="M254.414 24.6954C254.414 12.1697 244.26 2.01562 231.734 2.01562V24.9517H254.414V24.6954Z"/>
</mask>
<path d="M261.158 24.6954C261.158 11.2385 250.249 0.329504 236.792 0.329504H231.734V3.70175C240.535 3.70175 247.669 13.1009 247.669 24.6954H261.158ZM231.734 24.9517H254.414H231.734ZM261.158 24.9517V24.6954C261.158 11.2385 250.249 0.329504 236.792 0.329504L231.734 3.70175C240.535 3.70175 247.669 13.1009 247.669 24.6954V24.9517H261.158ZM231.734 2.01562V24.9517V2.01562Z" fill="white" mask="url(#path-8-inside-3_45_343)"/>
<mask id="path-10-inside-4_45_343" fill="white">
<path d="M254.414 94.5038C254.414 107.03 244.26 117.184 231.734 117.184V94.2475H254.414V94.5038Z"/>
</mask>
<path d="M261.158 94.5038C261.158 107.961 250.249 118.87 236.792 118.87H231.734V115.497C240.535 115.497 247.669 106.098 247.669 94.5038H261.158ZM231.734 94.2475H254.414H231.734ZM261.158 94.2475V94.5038C261.158 107.961 250.249 118.87 236.792 118.87L231.734 115.497C240.535 115.497 247.669 106.098 247.669 94.5038V94.2475H261.158ZM231.734 117.184V94.2475V117.184Z" fill="white" mask="url(#path-10-inside-4_45_343)"/>
</g>
<path d="M13.8284 218C9.33958 218 5.91265 216.863 3.54759 214.589C1.18253 212.267 0 209.049 0 204.937V179.244C0 175.132 1.18253 171.938 3.54759 169.664C5.91265 167.342 9.33958 166.181 13.8284 166.181C18.3654 166.181 21.8165 167.342 24.1816 169.664C26.5466 171.938 27.7291 175.132 27.7291 179.244V204.937C27.7291 209.049 26.5466 212.267 24.1816 214.589C21.8165 216.863 18.3654 218 13.8284 218ZM13.8284 213.21C15.9521 213.21 17.738 212.605 19.186 211.396C20.634 210.138 21.358 208.396 21.358 206.17V178.011C21.358 175.785 20.634 174.067 19.186 172.858C17.738 171.6 15.9521 170.971 13.8284 170.971C11.7046 170.971 9.91878 171.6 8.47078 172.858C7.07105 174.067 6.37119 175.785 6.37119 178.011V206.17C6.37119 208.396 7.07105 210.138 8.47078 211.396C9.91878 212.605 11.7046 213.21 13.8284 213.21Z" fill="white"/>
<path d="M39.5846 218C37.847 218 36.5438 217.396 35.675 216.186C34.8545 214.976 34.4442 213.404 34.4442 211.468V179.752H40.2362V209.581C40.2362 210.936 40.3327 211.904 40.5258 212.485C40.7189 213.065 41.1774 213.355 41.9014 213.355C42.2393 213.355 44.9663 212.63 50.0826 211.178V179.752H55.8746V217.492H51.7478L50.6618 215.025C49.8895 215.315 49.3103 215.509 48.9242 215.605C46.6557 216.428 44.8215 217.033 43.4218 217.42C42.0221 217.807 40.743 218 39.5846 218Z" fill="white"/>
<path d="M75.0786 217.492C72.424 217.492 70.3244 216.694 68.7799 215.097C67.2353 213.501 66.4631 211.347 66.4631 208.638V184.107H62.1191V179.752H66.4631V168.793L72.2551 166.616V179.752H78.047V184.107H72.2551V209.146C72.2551 210.307 72.5688 211.275 73.1963 212.049C73.872 212.775 74.7649 213.138 75.875 213.138H78.047V217.492H75.0786Z" fill="white"/>
<path d="M83.8119 179.752H88.3007L88.9523 182.438L90.7623 181.567C92.3068 180.793 93.5859 180.212 94.5995 179.825C95.6613 179.438 96.7232 179.244 97.785 179.244V183.526C97.1576 183.526 96.3129 183.72 95.2511 184.107C94.1892 184.446 92.3068 185.268 89.6039 186.575V217.492H83.8119V179.752Z" fill="white"/>
<path d="M103.184 173.583V167.777H108.976V173.583H103.184ZM103.184 217.492V179.752H108.976V217.492H103.184Z" fill="white"/>
<path d="M123.036 217.492L114.421 179.752H120.43L126.005 210.162L131.507 179.752H137.516L128.901 217.492H123.036Z" fill="white"/>
<path d="M150.594 217.492C148.856 217.492 147.239 217.057 145.743 216.186C144.295 215.315 143.137 214.13 142.268 212.63C141.447 211.13 141.037 209.436 141.037 207.549V203.775C141.037 201.501 141.592 199.59 142.702 198.042C143.861 196.493 145.285 195.405 146.974 194.776L155.952 191.437V188.026C155.952 186.865 155.59 185.921 154.866 185.196C154.19 184.422 153.297 184.034 152.187 184.034H144.006V179.752H152.694C155.348 179.752 157.448 180.551 158.992 182.148C160.585 183.696 161.382 185.825 161.382 188.534V217.492H150.594ZM155.952 213.065V196.01L149.58 198.405C148.325 198.889 147.432 199.542 146.902 200.364C146.419 201.187 146.178 202.493 146.178 204.283V208.348C146.178 209.654 146.66 210.767 147.626 211.686C148.591 212.605 149.749 213.065 151.101 213.065H155.952Z" fill="white"/>
<path d="M169.435 217.492V166.689H175.227V217.492H169.435Z" fill="white"/>
<path d="M194.962 217.492V166.689H204.591L214.293 196.735H214.8L224.718 166.689H233.986V217.492H227.614V174.309L217.913 203.993H211.035L201.333 174.237V217.492H194.962Z" fill="white"/>
<path d="M250.423 217.492C247.769 217.492 245.645 216.694 244.052 215.097C242.507 213.501 241.735 211.347 241.735 208.638V189.333C241.735 186.188 242.604 183.72 244.342 181.93C246.079 180.14 248.661 179.244 252.088 179.244C255.515 179.244 258.073 180.14 259.763 181.93C261.5 183.72 262.369 186.188 262.369 189.333V192.671C262.369 194.703 261.79 196.252 260.632 197.316C259.473 198.332 257.953 199.106 256.07 199.638L247.527 202.033V209.146C247.527 210.307 247.865 211.275 248.541 212.049C249.265 212.775 250.182 213.138 251.292 213.138H259.111V217.492H250.423ZM251.944 196.227C253.536 195.792 254.598 195.477 255.129 195.284C255.708 195.042 256.094 194.703 256.288 194.268C256.481 193.832 256.577 193.107 256.577 192.09V188.099C256.577 186.55 256.167 185.413 255.346 184.688C254.574 183.962 253.488 183.599 252.088 183.599C250.737 183.599 249.627 183.986 248.758 184.76C247.937 185.534 247.527 186.647 247.527 188.099V197.461L251.944 196.227Z" fill="white"/>
<path d="M277.691 217.492C274.651 217.492 272.189 216.597 270.307 214.807C268.424 213.017 267.483 210.622 267.483 207.622V189.55C267.483 187.47 268.038 185.704 269.148 184.252C270.307 182.801 271.73 181.809 273.42 181.277L283.121 177.865V166.689H288.913V217.492H277.691ZM283.121 213.138V182.656L276.678 184.833C275.423 185.22 274.53 185.849 273.999 186.72C273.516 187.542 273.275 188.873 273.275 190.712V207.622C273.275 209.364 273.782 210.718 274.795 211.686C275.809 212.654 277.185 213.138 278.922 213.138H283.121Z" fill="white"/>
<path d="M297.618 173.583V167.777H303.41V173.583H297.618ZM297.618 217.492V179.752H303.41V217.492H297.618Z" fill="white"/>
<path d="M319.786 217.492C318.049 217.492 316.432 217.057 314.935 216.186C313.487 215.315 312.329 214.13 311.46 212.63C310.64 211.13 310.229 209.436 310.229 207.549V203.775C310.229 201.501 310.784 199.59 311.895 198.042C313.053 196.493 314.477 195.405 316.166 194.776L325.144 191.437V188.026C325.144 186.865 324.782 185.921 324.058 185.196C323.382 184.422 322.489 184.034 321.379 184.034H313.198V179.752H321.886C324.54 179.752 326.64 180.551 328.185 182.148C329.777 183.696 330.574 185.825 330.574 188.534V217.492H319.786ZM325.144 213.065V196.01L318.773 198.405C317.518 198.889 316.625 199.542 316.094 200.364C315.611 201.187 315.37 202.493 315.37 204.283V208.348C315.37 209.654 315.852 210.767 316.818 211.686C317.783 212.605 318.942 213.065 320.293 213.065H325.144Z" fill="white"/>
<defs>
<filter id="filter0_i_45_343" x="90.2796" y="-2.92676" width="137.472" height="129.849" filterUnits="userSpaceOnUse" color-interpolation-filters="sRGB">
<feFlood flood-opacity="0" result="BackgroundImageFix"/>
<feBlend mode="normal" in="SourceGraphic" in2="BackgroundImageFix" result="shape"/>
<feColorMatrix in="SourceAlpha" type="matrix" values="0 0 0 0 0 0 0 0 0 0 0 0 0 0 0 0 0 0 127 0" result="hardAlpha"/>
<feOffset dy="6.74448"/>
<feGaussianBlur stdDeviation="22.7626"/>
<feComposite in2="hardAlpha" operator="arithmetic" k2="-1" k3="1"/>
<feColorMatrix type="matrix" values="0 0 0 0 0 0 0 0 0 0 0 0 0 0 0 0 0 0 0.3 0"/>
<feBlend mode="normal" in2="shape" result="effect1_innerShadow_45_343"/>
</filter>
<linearGradient id="paint0_linear_45_343" x1="226.564" y1="47.051" x2="90.141" y2="89.7175" gradientUnits="userSpaceOnUse">
<stop stop-color="#FDC221"/>
<stop offset="0.109375" stop-color="#F55F29"/>
<stop offset="0.395833" stop-color="#A916EB"/>
<stop offset="0.706854" stop-color="#590FFE"/>
<stop offset="1" stop-color="#1DC6E8"/>
</linearGradient>
<clipPath id="clip0_45_343">
<rect width="178.689" height="117.934" fill="white" transform="translate(76.8361)"/>
</clipPath>
</defs>
</svg>
