<svg width="18" height="18" viewBox="0 0 18 18" fill="none" xmlns="http://www.w3.org/2000/svg">
<g clip-path="url(#clip0_85_336)">
<path d="M5.9466 5.43806C7.12283 5.43806 8.18681 6.04162 8.7966 6.87326L10.2419 5.41765C9.37749 4.29363 7.7138 3.40234 5.9466 3.40234C2.85234 3.40234 0.314453 5.9063 0.314453 9.00056C0.314453 12.0948 2.85234 14.5988 5.9466 14.5988C8.51165 14.5988 10.6694 12.8786 11.331 10.5273C11.4735 10.0387 11.5448 9.52976 11.5448 9.00056V8.49163H6.45552V10.5269H9.15285C8.59303 11.7281 7.36139 12.5631 5.9466 12.5631C3.98218 12.5631 2.35017 10.965 2.35017 9.00056C2.35017 7.03615 3.98218 5.43806 5.9466 5.43806Z" fill="white"/>
<path d="M16.125 6.45508H14.0893V7.98186H12.5625V10.0176H14.0893V11.5444H16.125V10.0176H17.6857V7.98186H16.125V6.45508Z" fill="white"/>
</g>
<defs>
<clipPath id="clip0_85_336">
<rect width="17.3714" height="17.3714" fill="white" transform="translate(0.314453 0.314453)"/>
</clipPath>
</defs>
</svg>
