<svg width="302" height="66" viewBox="0 0 302 66" fill="none" xmlns="http://www.w3.org/2000/svg">
<g clip-path="url(#clip0_21_105)">
<ellipse cx="49.6892" cy="33.3539" rx="31.8659" ry="32.2261" fill="white"/>
<g filter="url(#filter0_i_21_105)">
<path d="M54.9715 41.0058C54.9715 41.0058 58.8111 58.117 62.8807 62.7363C75.6372 77.2157 85.0013 28.0806 82.0141 8.2914C77.0014 -24.9169 -2.74587 55.6816 10.9978 52.7111C24.7415 49.7405 54.9715 41.0058 54.9715 41.0058Z" fill="url(#paint0_linear_21_105)"/>
</g>
<path d="M54.2811 42.1887C54.3915 42.6507 54.5398 43.2596 54.7217 43.9795C55.1476 45.6653 55.7586 47.9634 56.4984 50.409C57.2374 52.852 58.1091 55.4567 59.0579 57.7506C59.9958 60.018 61.0477 62.0794 62.1759 63.36C63.8653 65.2776 65.6434 66.3062 67.4902 66.3106C69.3316 66.3151 70.9649 65.3 72.3689 63.7601C75.1546 60.7044 77.4738 55.1113 79.2597 48.62C82.8451 35.5882 84.4649 18.2183 82.9458 8.15442C82.2853 3.77873 80.3376 1.03829 77.2838 -0.0982224C74.3344 -1.19586 70.5991 -0.693602 66.5509 0.749422C58.4216 3.64725 48.3077 10.6064 38.8697 18.4327C29.4111 26.2761 20.5344 35.0725 14.8725 41.7391C12.0575 45.0535 9.97805 47.9094 9.04564 49.8857C8.80969 50.3858 8.62967 50.8653 8.53687 51.3063C8.44742 51.7313 8.41588 52.2276 8.60257 52.6887C8.81471 53.2127 9.24404 53.5372 9.74972 53.6664C10.205 53.7827 10.7081 53.7413 11.2006 53.6348C18.1017 52.1432 29.1192 49.2101 38.3922 46.6557C43.0329 45.3774 47.2435 44.1921 50.294 43.3263C51.8193 42.8934 53.0546 42.5404 53.9087 42.2955C54.0423 42.2572 54.1665 42.2216 54.2811 42.1887Z" stroke="black" stroke-width="1.88722"/>
<mask id="path-4-inside-1_21_105" fill="white">
<path d="M0 13.8202C0 6.81043 5.68256 1.12787 12.6924 1.12787V13.9637H0V13.8202Z"/>
</mask>
<path d="M-3.77444 13.8202C-3.77444 6.28929 2.33059 0.18426 9.86153 0.18426H12.6924V2.07148C7.76713 2.07148 3.77444 7.33157 3.77444 13.8202H-3.77444ZM12.6924 13.9637H0H12.6924ZM-3.77444 13.9637V13.8202C-3.77444 6.28929 2.33059 0.18426 9.86153 0.18426L12.6924 2.07148C7.76713 2.07148 3.77444 7.33157 3.77444 13.8202V13.9637H-3.77444ZM12.6924 1.12787V13.9637V1.12787Z" fill="white" mask="url(#path-4-inside-1_21_105)"/>
<mask id="path-6-inside-2_21_105" fill="white">
<path d="M-1.90735e-06 52.8877C-1.90735e-06 59.8975 5.68256 65.58 12.6924 65.58V52.7442H-1.90735e-06V52.8877Z"/>
</mask>
<path d="M-3.77444 52.8877C-3.77444 60.4186 2.33059 66.5236 9.86153 66.5236H12.6924V64.6364C7.76712 64.6364 3.77443 59.3763 3.77443 52.8877H-3.77444ZM12.6924 52.7442H-1.90735e-06H12.6924ZM-3.77444 52.7442V52.8877C-3.77444 60.4186 2.33059 66.5236 9.86153 66.5236L12.6924 64.6364C7.76712 64.6364 3.77443 59.3763 3.77443 52.8877V52.7442H-3.77444ZM12.6924 65.58V52.7442V65.58Z" fill="white" mask="url(#path-6-inside-2_21_105)"/>
<mask id="path-8-inside-3_21_105" fill="white">
<path d="M99.3784 13.8202C99.3784 6.81043 93.6959 1.12787 86.6861 1.12787V13.9637H99.3784V13.8202Z"/>
</mask>
<path d="M103.153 13.8202C103.153 6.28929 97.0478 0.18426 89.5169 0.18426H86.6861V2.07148C91.6113 2.07148 95.604 7.33157 95.604 13.8202H103.153ZM86.6861 13.9637H99.3784H86.6861ZM103.153 13.9637V13.8202C103.153 6.28929 97.0478 0.18426 89.5169 0.18426L86.6861 2.07148C91.6113 2.07148 95.604 7.33157 95.604 13.8202V13.9637H103.153ZM86.6861 1.12787V13.9637V1.12787Z" fill="white" mask="url(#path-8-inside-3_21_105)"/>
<mask id="path-10-inside-4_21_105" fill="white">
<path d="M99.3784 52.8877C99.3784 59.8975 93.6959 65.58 86.6861 65.58V52.7442H99.3784V52.8877Z"/>
</mask>
<path d="M103.153 52.8877C103.153 60.4186 97.0478 66.5236 89.5169 66.5236H86.6861V64.6364C91.6113 64.6364 95.604 59.3763 95.604 52.8877H103.153ZM86.6861 52.7442H99.3784H86.6861ZM103.153 52.7442V52.8877C103.153 60.4186 97.0478 66.5236 89.5169 66.5236L86.6861 64.6364C91.6113 64.6364 95.604 59.3763 95.604 52.8877V52.7442H103.153ZM86.6861 65.58V52.7442V65.58Z" fill="white" mask="url(#path-10-inside-4_21_105)"/>
</g>
<path d="M124.724 47.5C122.212 47.5 120.294 46.8637 118.97 45.591C117.647 44.2913 116.985 42.4907 116.985 40.1891V25.8109C116.985 23.5093 117.647 21.7222 118.97 20.4496C120.294 19.1499 122.212 18.5 124.724 18.5C127.263 18.5 129.194 19.1499 130.518 20.4496C131.841 21.7222 132.503 23.5093 132.503 25.8109V40.1891C132.503 42.4907 131.841 44.2913 130.518 45.591C129.194 46.8637 127.263 47.5 124.724 47.5ZM124.724 44.8193C125.912 44.8193 126.912 44.4809 127.722 43.8039C128.532 43.0999 128.938 42.1251 128.938 40.8796V25.1204C128.938 23.8749 128.532 22.9136 127.722 22.2367C126.912 21.5327 125.912 21.1807 124.724 21.1807C123.535 21.1807 122.536 21.5327 121.725 22.2367C120.942 22.9136 120.55 23.8749 120.55 25.1204V40.8796C120.55 42.1251 120.942 43.0999 121.725 43.8039C122.536 44.4809 123.535 44.8193 124.724 44.8193Z" fill="white"/>
<path d="M139.138 47.5C138.165 47.5 137.436 47.1615 136.95 46.4846C136.491 45.8077 136.261 44.9276 136.261 43.8445V26.0952H139.502V42.7885C139.502 43.5467 139.557 44.0882 139.665 44.4132C139.773 44.7381 140.029 44.9006 140.434 44.9006C140.623 44.9006 142.15 44.4944 145.013 43.6821V26.0952H148.254V47.2157H145.945L145.337 45.8347C144.905 45.9972 144.581 46.1055 144.365 46.1597C143.095 46.62 142.069 46.9584 141.285 47.1751C140.502 47.3917 139.786 47.5 139.138 47.5Z" fill="white"/>
<path d="M159.001 47.2157C157.516 47.2157 156.341 46.7689 155.476 45.8753C154.612 44.9818 154.18 43.7768 154.18 42.2605V28.5322H151.749V26.0952H154.18V19.9622L157.421 18.7437V26.0952H160.663V28.5322H157.421V42.5448C157.421 43.1947 157.597 43.7362 157.948 44.1695C158.326 44.5756 158.826 44.7787 159.447 44.7787H160.663V47.2157H159.001Z" fill="white"/>
<path d="M163.889 26.0952H166.401L166.766 27.598L167.779 27.1106C168.643 26.6774 169.359 26.3525 169.926 26.1359C170.52 25.9192 171.114 25.8109 171.709 25.8109V28.2073C171.358 28.2073 170.885 28.3156 170.291 28.5322C169.696 28.7218 168.643 29.1821 167.13 29.9132V47.2157H163.889V26.0952Z" fill="white"/>
<path d="M174.73 22.6429V19.3936H177.972V22.6429H174.73ZM174.73 47.2157V26.0952H177.972V47.2157H174.73Z" fill="white"/>
<path d="M185.84 47.2157L181.019 26.0952H184.381L187.501 43.1134L190.581 26.0952H193.944L189.122 47.2157H185.84Z" fill="white"/>
<path d="M201.262 47.2157C200.29 47.2157 199.385 46.972 198.548 46.4846C197.737 45.9972 197.089 45.3338 196.603 44.4944C196.144 43.655 195.914 42.7073 195.914 41.6513V39.5392C195.914 38.2666 196.225 37.197 196.846 36.3305C197.494 35.4641 198.291 34.8548 199.236 34.5028L204.261 32.6345V30.7255C204.261 30.0756 204.058 29.5476 203.653 29.1415C203.275 28.7082 202.775 28.4916 202.154 28.4916H197.575V26.0952H202.437C203.923 26.0952 205.098 26.542 205.962 27.4356C206.854 28.3021 207.299 29.4935 207.299 31.0098V47.2157H201.262ZM204.261 44.7381V35.1933L200.695 36.5336C199.993 36.8044 199.493 37.1699 199.196 37.6303C198.926 38.0906 198.791 38.8217 198.791 39.8235V42.098C198.791 42.8291 199.061 43.4519 199.601 43.9664C200.141 44.4809 200.79 44.7381 201.546 44.7381H204.261Z" fill="white"/>
<path d="M211.806 47.2157V18.7843H215.048V47.2157H211.806Z" fill="white"/>
<path d="M226.092 47.2157V18.7843H231.481L236.91 35.5994H237.194L242.745 18.7843H247.931V47.2157H244.365V23.049L238.936 39.6611H235.087L229.658 23.0084V47.2157H226.092Z" fill="white"/>
<path d="M257.13 47.2157C255.644 47.2157 254.456 46.7689 253.565 45.8753C252.7 44.9818 252.268 43.7768 252.268 42.2605V31.4566C252.268 29.6965 252.754 28.3156 253.727 27.3137C254.699 26.3119 256.144 25.8109 258.062 25.8109C259.98 25.8109 261.411 26.3119 262.357 27.3137C263.329 28.3156 263.815 29.6965 263.815 31.4566V33.3249C263.815 34.4622 263.491 35.3287 262.843 35.9244C262.195 36.493 261.344 36.9262 260.29 37.2241L255.509 38.5644V42.5448C255.509 43.1947 255.698 43.7362 256.077 44.1695C256.482 44.5756 256.995 44.7787 257.616 44.7787H261.992V47.2157H257.13ZM257.981 35.3151C258.872 35.0714 259.467 34.8954 259.764 34.7871C260.088 34.6517 260.304 34.4622 260.412 34.2185C260.52 33.9748 260.574 33.5686 260.574 33V30.7661C260.574 29.8996 260.344 29.2633 259.885 28.8571C259.453 28.451 258.845 28.2479 258.062 28.2479C257.306 28.2479 256.684 28.4645 256.198 28.8978C255.739 29.331 255.509 29.9538 255.509 30.7661V36.0056L257.981 35.3151Z" fill="white"/>
<path d="M272.39 47.2157C270.688 47.2157 269.311 46.7148 268.257 45.7129C267.204 44.711 266.677 43.3707 266.677 41.6919V31.5784C266.677 30.4141 266.988 29.4258 267.609 28.6134C268.257 27.8011 269.054 27.246 270 26.9482L275.429 25.0392V18.7843H278.67V47.2157H272.39ZM275.429 44.7787V27.7199L271.823 28.9384C271.121 29.155 270.621 29.507 270.324 29.9944C270.054 30.4547 269.919 31.1993 269.919 32.2283V41.6919C269.919 42.6667 270.202 43.4248 270.769 43.9664C271.337 44.5079 272.107 44.7787 273.079 44.7787H275.429Z" fill="white"/>
<path d="M283.542 22.6429V19.3936H286.783V22.6429H283.542ZM283.542 47.2157V26.0952H286.783V47.2157H283.542Z" fill="white"/>
<path d="M295.948 47.2157C294.975 47.2157 294.071 46.972 293.233 46.4846C292.423 45.9972 291.775 45.3338 291.288 44.4944C290.829 43.655 290.6 42.7073 290.6 41.6513V39.5392C290.6 38.2666 290.91 37.197 291.531 36.3305C292.18 35.4641 292.977 34.8548 293.922 34.5028L298.946 32.6345V30.7255C298.946 30.0756 298.744 29.5476 298.338 29.1415C297.96 28.7082 297.461 28.4916 296.839 28.4916H292.261V26.0952H297.123C298.609 26.0952 299.784 26.542 300.648 27.4356C301.539 28.3021 301.985 29.4935 301.985 31.0098V47.2157H295.948ZM298.946 44.7381V35.1933L295.381 36.5336C294.678 36.8044 294.179 37.1699 293.881 37.6303C293.611 38.0906 293.476 38.8217 293.476 39.8235V42.098C293.476 42.8291 293.746 43.4519 294.287 43.9664C294.827 44.4809 295.475 44.7381 296.231 44.7381H298.946Z" fill="white"/>
<defs>
<filter id="filter0_i_21_105" x="7.52349" y="-1.63788" width="76.9337" height="72.6679" filterUnits="userSpaceOnUse" color-interpolation-filters="sRGB">
<feFlood flood-opacity="0" result="BackgroundImageFix"/>
<feBlend mode="normal" in="SourceGraphic" in2="BackgroundImageFix" result="shape"/>
<feColorMatrix in="SourceAlpha" type="matrix" values="0 0 0 0 0 0 0 0 0 0 0 0 0 0 0 0 0 0 127 0" result="hardAlpha"/>
<feOffset dy="3.77444"/>
<feGaussianBlur stdDeviation="12.7387"/>
<feComposite in2="hardAlpha" operator="arithmetic" k2="-1" k3="1"/>
<feColorMatrix type="matrix" values="0 0 0 0 0 0 0 0 0 0 0 0 0 0 0 0 0 0 0.3 0"/>
<feBlend mode="normal" in2="shape" result="effect1_innerShadow_21_105"/>
</filter>
<linearGradient id="paint0_linear_21_105" x1="83.7929" y1="26.3314" x2="7.44593" y2="50.2089" gradientUnits="userSpaceOnUse">
<stop stop-color="#FDC221"/>
<stop offset="0.109375" stop-color="#F55F29"/>
<stop offset="0.395833" stop-color="#A916EB"/>
<stop offset="0.706854" stop-color="#590FFE"/>
<stop offset="1" stop-color="#1DC6E8"/>
</linearGradient>
<clipPath id="clip0_21_105">
<rect width="100" height="66" fill="white"/>
</clipPath>
</defs>
</svg>
