<svg width="15" height="15" viewBox="0 0 15 15" fill="none" xmlns="http://www.w3.org/2000/svg">
<g clip-path="url(#clip0_85_332)">
<path d="M0.446566 12.3581L0.446766 12.3579L0.430471 12.3416L0.430462 12.3416C0.198492 12.1095 0.120902 11.8021 0.221409 11.5008L0.221875 11.4994L0.221896 11.4994L0.23049 11.476L0.230988 11.4746L0.231007 11.4746C0.35268 11.1703 0.650588 10.9652 0.974619 10.9632M0.446566 12.3581L0.975201 11.0132M0.446566 12.3581L0.450709 12.3615L0.468678 12.376L0.468728 12.376C0.938925 12.7547 1.66071 13.0494 2.56715 13.2498C3.47452 13.4503 4.57106 13.5572 5.79451 13.5572C10.1233 13.5572 13.6498 9.78003 13.7506 5.10371C14.2749 4.75572 14.6699 4.20957 14.8765 3.54363L14.8765 3.54363L14.8769 3.5424L14.8835 3.51907L14.8835 3.51908L14.8839 3.5176C14.9492 3.25601 14.8731 2.96791 14.6877 2.78252C14.6381 2.73291 14.5813 2.69131 14.5198 2.65812C14.5617 2.56636 14.5997 2.47288 14.6339 2.37788C14.7435 2.09428 14.6862 1.79934 14.4773 1.59044C14.2644 1.37757 13.9314 1.31934 13.6603 1.44612C13.1299 1.67344 12.6207 1.8876 12.1963 2.02797C11.9461 1.89449 11.6183 1.73522 11.27 1.60807C10.9134 1.47792 10.5319 1.38015 10.1886 1.38015L10.1826 1.38015L10.1819 1.38016C9.25022 1.3933 8.37713 1.77819 7.72373 2.46339L7.72372 2.46339C7.18755 3.02576 6.85046 3.73681 6.74975 4.50282C4.76945 4.0607 3.61801 3.41519 2.33114 2.06606L2.33115 2.06606L2.33034 2.06524L2.16505 1.89973L2.16502 1.89971C2.03902 1.77371 1.85883 1.71562 1.68295 1.74407L1.68292 1.74408C1.50702 1.77266 1.35453 1.88471 1.27468 2.04427L1.27468 2.04429L1.18413 2.22537L0.446566 12.3581ZM0.974619 10.9632C0.974715 10.9632 0.974811 10.9632 0.974907 10.9632L0.975201 11.0132M0.974619 10.9632C0.974524 10.9632 0.974429 10.9632 0.974335 10.9632L0.975201 11.0132M0.974619 10.9632C1.5428 10.9533 2.0447 10.8905 2.5018 10.7704M0.975201 11.0132C1.56927 11.0029 2.09266 10.935 2.56909 10.804C2.54646 10.793 2.52403 10.7818 2.5018 10.7704M2.5018 10.7704C2.526 10.764 2.55008 10.7575 2.57403 10.7508C1.8195 10.3785 1.2922 9.75193 0.974755 8.85671M2.5018 10.7704C1.76104 10.3888 1.24203 9.75969 0.927833 8.874M0.927833 8.874C0.927906 8.87419 0.92798 8.87438 0.928053 8.87457L0.974755 8.85671M0.927833 8.874C0.927766 8.87381 0.927698 8.87362 0.92763 8.87342L0.974755 8.85671M0.927833 8.874C0.809997 8.56507 0.912623 8.22327 1.18303 8.0204M0.974755 8.85671C0.864822 8.56921 0.959688 8.25046 1.21304 8.0604M1.21304 8.0604L1.18299 8.02043C1.183 8.02042 1.18302 8.02041 1.18303 8.0204M1.21304 8.0604C1.26129 8.02412 1.3144 7.9947 1.37052 7.97223C1.35909 7.95893 1.34774 7.94559 1.33646 7.9322M1.21304 8.0604L1.18303 8.0204M1.18303 8.0204C1.23049 7.98473 1.28215 7.95533 1.33646 7.9322M1.33646 7.9322C1.35269 7.92529 1.36916 7.91894 1.38582 7.91315M1.33646 7.9322C0.916323 7.43323 0.60455 6.86919 0.427071 6.27315C0.427067 6.27313 0.427062 6.27312 0.427057 6.2731L0.421395 6.25423L0.420055 6.24976L0.420268 6.24972L0.416362 6.2303L0.416349 6.23024C0.350883 5.90267 0.496234 5.56221 0.7704 5.4137C0.861008 5.36178 0.958079 5.32976 1.0568 5.3176C0.945646 5.06615 0.86374 4.80869 0.813506 4.5495C0.813505 4.5495 0.813504 4.54949 0.813503 4.54949L0.86259 4.53997C0.713259 3.77078 0.836474 2.99968 1.22866 2.24812L1.38582 7.91315M1.38582 7.91315C0.964127 7.41577 0.651907 6.85305 0.474978 6.25883L0.469286 6.23986L1.38582 7.91315ZM13.0912 4.38285L13.0912 4.38284C13.3952 4.22185 13.6469 3.95451 13.8204 3.61098C13.6498 3.60985 13.4857 3.52991 13.3791 3.38668C13.2333 3.19091 13.2317 2.92619 13.375 2.7287C13.4152 2.67335 13.4531 2.61671 13.4888 2.55889C13.0735 2.73129 12.6786 2.88475 12.3305 2.99038L12.3304 2.9904C12.1781 3.0365 12.0087 3.01851 11.8695 2.94077C11.53 2.75162 11.2027 2.60088 10.9135 2.49742C10.6236 2.39372 10.3751 2.3387 10.1917 2.33808C8.80585 2.35954 7.67576 3.54741 7.67576 4.99109C7.67576 5.15797 7.60163 5.31453 7.47282 5.42054L7.47278 5.42058C7.34387 5.52645 7.17601 5.56894 7.01219 5.53657C4.70148 5.08133 3.31581 4.39995 1.88977 2.98423C1.71047 3.44622 1.66502 3.90964 1.75375 4.36705C1.84834 4.85412 2.10048 5.34439 2.48505 5.78406L13.0912 4.38285ZM13.0912 4.38285C12.9086 4.47965 12.795 4.66793 12.795 4.87424V4.89756C12.795 6.95862 12.059 8.89698 10.7235 10.3562C9.39897 11.8034 7.64847 12.5992 5.79451 12.5992C3.96482 12.5992 2.39677 12.3347 1.50375 11.8979C2.43735 11.829 3.22514 11.6127 3.95018 11.2283L3.9502 11.2283C4.16022 11.1169 4.27639 10.8844 4.23898 10.6497M13.0912 4.38285L3.92676 11.1842C4.11795 11.0827 4.22364 10.8711 4.1896 10.6576M2.60319 9.12912C2.85393 9.14777 3.0858 8.99531 3.16881 8.75853C3.25173 8.52204 3.16543 8.25806 2.95872 8.11637L2.95871 8.11636C2.35942 7.7057 1.87519 7.15898 1.5726 6.56497C1.68416 6.61407 1.80061 6.65463 1.92397 6.68771L1.92398 6.68771C2.16143 6.75134 2.40881 6.65361 2.53874 6.44486L2.6069 9.07926M2.60319 9.12912L2.6069 9.07926M2.60319 9.12912C2.60319 9.12912 2.6032 9.12912 2.6032 9.12912L2.6069 9.07926M2.60319 9.12912C2.3987 9.11397 2.21223 9.07958 2.0383 9.02374M2.6069 9.07926C2.38619 9.06291 2.18783 9.02385 2.00425 8.95958C2.0154 8.98128 2.02675 9.00266 2.0383 9.02374M2.0383 9.02374C2.01496 9.01625 1.99184 9.00836 1.96893 9.00009C1.95758 8.97838 1.94643 8.95637 1.93547 8.93406L3.77632 10.2385C3.9896 10.2757 4.15567 10.4441 4.1896 10.6576M2.0383 9.02374C2.20824 9.33397 2.42116 9.57816 2.68533 9.76489C2.98068 9.97367 3.34251 10.1123 3.78489 10.1893L3.7849 10.1893C4.01919 10.2301 4.20168 10.4151 4.23898 10.6497M4.23898 10.6497L4.1896 10.6576M4.23898 10.6497C4.23898 10.6497 4.23898 10.6498 4.23898 10.6498L4.1896 10.6576M1.46527 6.45816C1.47655 6.48268 1.48814 6.50712 1.50004 6.53149L1.53739 6.49393C1.51312 6.48245 1.48909 6.47053 1.46527 6.45816Z" fill="#5F98DD" stroke="#5F98DD" stroke-width="0.1"/>
</g>
<defs>
<clipPath id="clip0_85_332">
<rect width="14.6286" height="14.6286" fill="white" transform="translate(0.228333 0.142578)"/>
</clipPath>
</defs>
</svg>
