<svg width="76" height="241" viewBox="0 0 76 241" fill="none" xmlns="http://www.w3.org/2000/svg">
<path d="M69.3887 157.069C68.8177 158.445 68.0471 159.766 67.7204 161.194C64.7217 174.473 58.736 186.396 51.8249 197.865C45.6678 208.091 38.234 217.221 29.1012 224.734C25.5459 227.656 21.7229 230.218 17.6752 233.209C23.5308 235.073 29.7355 235.665 34.1736 240.582C28.7346 239.004 23.3856 236.9 17.8364 235.995C12.2765 235.088 6.50816 235.367 0.322207 235.104C6.67926 227.95 14.6718 222.086 15.4223 211.276C18.13 215.766 16.5364 219.384 6.63159 232.444C9.5767 233.061 12.1949 233.491 14.982 231.88C30.6478 222.846 42.3577 209.707 51.5888 193.973C56.9815 184.779 61.3037 175.033 64.6286 164.911C68.0102 154.627 70.5786 144.147 71.904 133.297C73.7219 118.524 74.123 103.832 72.3684 89.144C70.2885 71.7634 65.5542 55.2679 56.6136 40.4756C46.6589 23.981 33.2804 11.3534 15.8472 3.67686C14.7815 3.20578 13.75 2.62594 12.7422 2.03952C12.5357 1.91422 12.471 1.54055 12.2516 1.1107C13.1025 -0.275001 14.252 0.376444 15.221 0.780446C24.7715 4.74433 33.3094 10.3844 40.9632 17.4612C56.6733 31.9676 66.1027 50.4047 71.4445 71.3947C75.7042 88.1373 76.3983 105.246 75.5032 122.514C75.3455 125.545 74.4629 128.538 74.0301 131.556C73.8428 132.851 73.9895 134.194 73.9769 135.504C72.4554 142.69 70.9233 149.874 69.3887 157.069Z" fill="url(#paint0_linear_86_230)"/>
<defs>
<linearGradient id="paint0_linear_86_230" x1="82.0455" y1="95.2296" x2="-41.6403" y2="99.2369" gradientUnits="userSpaceOnUse">
<stop stop-color="#F55F29"/>
<stop offset="0.985529" stop-color="#FDC221"/>
</linearGradient>
</defs>
</svg>
