<svg width="71" height="241" viewBox="0 0 71 241" fill="none" xmlns="http://www.w3.org/2000/svg">
<g clip-path="url(#clip0_1005_2)">
<path d="M6.17657 157.069C6.71 158.445 7.42991 159.766 7.73512 161.194C10.5365 174.473 16.1284 186.396 22.5849 197.865C28.3369 208.091 35.2816 217.221 43.8136 224.734C47.135 227.656 50.7065 230.218 54.4879 233.209C49.0175 235.073 43.221 235.665 39.0749 240.582C44.1561 239.004 49.1532 236.9 54.3373 235.995C59.5314 235.088 64.9202 235.367 70.6992 235.104C64.7604 227.95 57.2937 222.086 56.5926 211.276C54.063 215.766 55.5517 219.384 64.8049 232.444C62.0536 233.061 59.6076 233.491 57.0039 231.88C42.3687 222.846 31.4292 209.707 22.8054 193.973C17.7675 184.779 13.7297 175.033 10.6235 164.911C7.46438 154.627 5.06495 144.147 3.82675 133.297C2.12845 118.524 1.75374 103.832 3.3929 89.1443C5.33597 71.7637 9.7588 55.2682 18.1112 40.4759C27.411 23.9813 39.9093 11.3537 56.1956 3.67717C57.1912 3.20609 58.1548 2.62625 59.0963 2.03983C59.2892 1.91453 59.3497 1.54086 59.5547 1.11101C58.7597 -0.27469 57.6859 0.376754 56.7806 0.780756C47.8584 4.74464 39.8822 10.3847 32.732 17.4615C18.0554 31.9679 9.24638 50.405 4.25602 71.395C0.276561 88.1376 -0.371868 105.246 0.464344 122.514C0.611669 125.545 1.4362 128.538 1.84053 131.556C2.01551 132.851 1.87846 134.194 1.89023 135.504C3.31163 142.69 4.74293 149.874 6.17657 157.069Z" fill="url(#paint0_linear_1005_2)"/>
</g>
<defs>
<linearGradient id="paint0_linear_1005_2" x1="-5.64754" y1="95.2299" x2="109.916" y2="98.7277" gradientUnits="userSpaceOnUse">
<stop stop-color="#F55F29"/>
<stop offset="0.985529" stop-color="#FDC221"/>
</linearGradient>
<clipPath id="clip0_1005_2">
<rect width="71" height="241" fill="white" transform="matrix(-1 0 0 1 71 0)"/>
</clipPath>
</defs>
</svg>
