<svg width="304" height="315" viewBox="0 0 304 315" fill="none" xmlns="http://www.w3.org/2000/svg">
<path d="M195.743 182.784C195.466 184.248 194.982 185.699 194.954 187.163C194.736 200.775 191.316 213.67 186.898 226.311C182.963 237.58 177.555 248.037 170.152 257.26C167.27 260.848 164.052 264.138 160.702 267.894C166.815 268.521 173.009 267.831 178.36 271.735C172.713 271.304 167.047 270.338 161.43 270.588C155.802 270.837 150.212 272.291 144.104 273.299C148.863 264.996 155.486 257.621 154.009 246.886C157.578 250.726 156.759 254.595 149.735 269.405C152.744 269.406 155.395 269.292 157.794 267.144C171.28 255.096 180.054 239.839 185.87 222.549C189.268 212.447 191.505 202.022 192.688 191.434C193.894 180.676 194.264 169.892 193.342 159C192.098 144.168 189.485 129.704 184.763 115.686C179.171 99.099 171.161 83.921 159.384 71.2708C146.265 57.162 130.586 47.5386 111.951 43.5913C110.811 43.3483 109.683 42.9917 108.576 42.6239C108.348 42.5435 108.209 42.191 107.906 41.8151C108.455 40.2846 109.714 40.6871 110.745 40.8843C120.904 42.8103 130.416 46.5843 139.355 51.9454C157.701 62.9306 170.703 79.0485 180.227 98.5016C187.822 114.018 192.001 130.623 194.658 147.709C195.124 150.708 194.873 153.818 195.067 156.862C195.148 158.168 195.567 159.452 195.822 160.736C195.803 168.082 195.773 175.427 195.743 182.784Z" fill="url(#paint0_linear_96_166)"/>
<defs>
<linearGradient id="paint0_linear_96_166" x1="195.48" y1="119.663" x2="75.2305" y2="148.892" gradientUnits="userSpaceOnUse">
<stop stop-color="#F55F29"/>
<stop offset="0.985529" stop-color="#FDC221"/>
</linearGradient>
</defs>
</svg>
