<svg width="482" height="1943" viewBox="0 0 482 1943" fill="none" xmlns="http://www.w3.org/2000/svg">
<g filter="url(#filter0_d_276_36)">
<path d="M447.5 22L41.4729 389.106C32.6673 397.068 32.6945 410.902 41.5312 418.829L430.914 768.122C439.771 776.066 439.775 789.939 430.924 797.889L41.5758 1147.61C32.7249 1155.56 32.7294 1169.43 41.5856 1177.38L430.793 1526.51C439.692 1534.5 439.646 1548.45 430.694 1556.38L25 1915.5" stroke="url(#paint0_linear_276_36)" stroke-width="4"/>
</g>
<rect x="432" width="50" height="50" rx="25" fill="url(#paint1_linear_276_36)"/>
<path d="M452.775 20.325V16.325H459.925V34H455.425V20.325H452.775Z" fill="white"/>
<rect x="432" y="758" width="50" height="50" rx="25" fill="url(#paint2_linear_276_36)"/>
<path d="M456.55 773.55C457.783 773.55 458.842 773.767 459.725 774.2C460.608 774.617 461.275 775.2 461.725 775.95C462.192 776.683 462.425 777.517 462.425 778.45C462.425 779.6 462.125 780.525 461.525 781.225C460.942 781.925 460.208 782.367 459.325 782.55V782.675C461.608 783.408 462.75 784.833 462.75 786.95C462.75 787.967 462.517 788.875 462.05 789.675C461.583 790.458 460.9 791.075 460 791.525C459.117 791.958 458.05 792.175 456.8 792.175C454.767 792.175 453.15 791.675 451.95 790.675C450.767 789.675 450.125 788.15 450.025 786.1H454.2C454.233 786.883 454.45 787.5 454.85 787.95C455.25 788.4 455.833 788.625 456.6 788.625C457.217 788.625 457.7 788.442 458.05 788.075C458.417 787.708 458.6 787.233 458.6 786.65C458.6 785.2 457.55 784.475 455.45 784.475H454.65V781H455.425C457.308 781.033 458.25 780.358 458.25 778.975C458.25 778.375 458.083 777.917 457.75 777.6C457.433 777.267 457 777.1 456.45 777.1C455.85 777.1 455.375 777.308 455.025 777.725C454.675 778.125 454.475 778.667 454.425 779.35H450.25C450.333 777.483 450.917 776.05 452 775.05C453.083 774.05 454.6 773.55 456.55 773.55Z" fill="white"/>
<rect x="432" y="1516" width="50" height="50" rx="25" fill="url(#paint3_linear_276_36)"/>
<path d="M462.6 1535.65H454.65V1539.22C455 1538.82 455.483 1538.52 456.1 1538.3C456.733 1538.07 457.417 1537.95 458.15 1537.95C459.333 1537.95 460.325 1538.22 461.125 1538.75C461.925 1539.27 462.517 1539.97 462.9 1540.85C463.283 1541.73 463.475 1542.71 463.475 1543.77C463.475 1545.71 462.933 1547.24 461.85 1548.37C460.767 1549.49 459.242 1550.05 457.275 1550.05C455.942 1550.05 454.783 1549.82 453.8 1549.35C452.817 1548.87 452.058 1548.2 451.525 1547.35C450.992 1546.5 450.708 1545.52 450.675 1544.4H454.85C454.933 1544.97 455.158 1545.43 455.525 1545.8C455.908 1546.17 456.425 1546.35 457.075 1546.35C457.825 1546.35 458.383 1546.11 458.75 1545.62C459.133 1545.14 459.325 1544.5 459.325 1543.7C459.325 1542.93 459.125 1542.34 458.725 1541.92C458.325 1541.51 457.767 1541.3 457.05 1541.3C456.5 1541.3 456.042 1541.42 455.675 1541.67C455.308 1541.91 455.058 1542.22 454.925 1542.6H450.775V1531.9H462.6V1535.65Z" fill="white"/>
<rect y="377" width="50" height="50" rx="25" fill="url(#paint4_linear_276_36)"/>
<path d="M18.35 407.6C23.65 403.817 26.3 400.808 26.3 398.575C26.3 397.208 25.7083 396.525 24.525 396.525C23.8583 396.525 23.3667 396.758 23.05 397.225C22.75 397.692 22.5833 398.417 22.55 399.4H18.375C18.475 397.25 19.125 395.633 20.325 394.55C21.525 393.467 23.0417 392.925 24.875 392.925C26.7917 392.925 28.2333 393.408 29.2 394.375C30.1833 395.342 30.675 396.6 30.675 398.15C30.675 399.867 30.0167 401.55 28.7 403.2C27.3833 404.833 25.8083 406.217 23.975 407.35H30.95V410.8H18.35V407.6Z" fill="white"/>
<rect y="1135" width="50" height="50" rx="25" fill="url(#paint5_linear_276_36)"/>
<path d="M17.6 1165.75V1162.17L25.675 1151.1H30.275V1162.02H32.4V1165.75H30.275V1169H25.95V1165.75H17.6ZM26.3 1156.05L21.95 1162.02H26.3V1156.05Z" fill="white"/>
<rect y="1893" width="50" height="50" rx="25" fill="url(#paint6_linear_276_36)"/>
<path d="M27 1914.2C26.8833 1913.48 26.65 1912.94 26.3 1912.57C25.9667 1912.21 25.4833 1912.02 24.85 1912.02C23.8833 1912.02 23.1917 1912.47 22.775 1913.37C22.375 1914.26 22.1917 1915.62 22.225 1917.47C22.5083 1916.79 22.9917 1916.26 23.675 1915.87C24.375 1915.47 25.1833 1915.27 26.1 1915.27C27.7667 1915.27 29.0833 1915.78 30.05 1916.8C31.0167 1917.8 31.5 1919.24 31.5 1921.12C31.5 1922.31 31.2583 1923.36 30.775 1924.27C30.2917 1925.19 29.575 1925.91 28.625 1926.42C27.6917 1926.92 26.5667 1927.18 25.25 1927.18C22.6667 1927.18 20.8833 1926.37 19.9 1924.77C18.9167 1923.17 18.425 1920.96 18.425 1918.12C18.425 1914.86 18.95 1912.46 20 1910.92C21.05 1909.37 22.7583 1908.6 25.125 1908.6C26.9917 1908.6 28.4083 1909.13 29.375 1910.2C30.3417 1911.25 30.8833 1912.58 31 1914.2H27ZM22.55 1920.92C22.55 1921.69 22.7667 1922.32 23.2 1922.8C23.6333 1923.27 24.2667 1923.5 25.1 1923.5C25.85 1923.5 26.4333 1923.29 26.85 1922.87C27.2833 1922.46 27.5 1921.85 27.5 1921.05C27.5 1920.25 27.2833 1919.64 26.85 1919.22C26.4167 1918.79 25.825 1918.57 25.075 1918.57C24.3583 1918.57 23.7583 1918.78 23.275 1919.2C22.7917 1919.6 22.55 1920.17 22.55 1920.92Z" fill="white"/>
<defs>
<filter id="filter0_d_276_36" x="19.6743" y="20.5166" width="433.167" height="1904.48" filterUnits="userSpaceOnUse" color-interpolation-filters="sRGB">
<feFlood flood-opacity="0" result="BackgroundImageFix"/>
<feColorMatrix in="SourceAlpha" type="matrix" values="0 0 0 0 0 0 0 0 0 0 0 0 0 0 0 0 0 0 127 0" result="hardAlpha"/>
<feOffset dy="4"/>
<feGaussianBlur stdDeviation="2"/>
<feComposite in2="hardAlpha" operator="out"/>
<feColorMatrix type="matrix" values="0 0 0 0 0.663059 0 0 0 0 0.0873725 0 0 0 0 0.921412 0 0 0 1 0"/>
<feBlend mode="normal" in2="BackgroundImageFix" result="effect1_dropShadow_276_36"/>
<feBlend mode="normal" in="SourceGraphic" in2="effect1_dropShadow_276_36" result="shape"/>
</filter>
<linearGradient id="paint0_linear_276_36" x1="445.015" y1="662.426" x2="-151.632" y2="749.024" gradientUnits="userSpaceOnUse">
<stop stop-color="#F55F29"/>
<stop offset="0.985529" stop-color="#FDC221"/>
</linearGradient>
<linearGradient id="paint1_linear_276_36" x1="481.706" y1="16.9112" x2="431.045" y2="49.8648" gradientUnits="userSpaceOnUse">
<stop stop-color="#FDC221"/>
<stop offset="0.109375" stop-color="#F55F29"/>
<stop offset="0.395833" stop-color="#A916EB"/>
<stop offset="0.706854" stop-color="#590FFE"/>
<stop offset="1" stop-color="#1DC6E8"/>
</linearGradient>
<linearGradient id="paint2_linear_276_36" x1="481.706" y1="774.911" x2="431.045" y2="807.865" gradientUnits="userSpaceOnUse">
<stop stop-color="#FDC221"/>
<stop offset="0.109375" stop-color="#F55F29"/>
<stop offset="0.395833" stop-color="#A916EB"/>
<stop offset="0.706854" stop-color="#590FFE"/>
<stop offset="1" stop-color="#1DC6E8"/>
</linearGradient>
<linearGradient id="paint3_linear_276_36" x1="481.706" y1="1532.91" x2="431.045" y2="1565.86" gradientUnits="userSpaceOnUse">
<stop stop-color="#FDC221"/>
<stop offset="0.109375" stop-color="#F55F29"/>
<stop offset="0.395833" stop-color="#A916EB"/>
<stop offset="0.706854" stop-color="#590FFE"/>
<stop offset="1" stop-color="#1DC6E8"/>
</linearGradient>
<linearGradient id="paint4_linear_276_36" x1="49.7059" y1="393.911" x2="-0.95528" y2="426.865" gradientUnits="userSpaceOnUse">
<stop stop-color="#FDC221"/>
<stop offset="0.109375" stop-color="#F55F29"/>
<stop offset="0.395833" stop-color="#A916EB"/>
<stop offset="0.706854" stop-color="#590FFE"/>
<stop offset="1" stop-color="#1DC6E8"/>
</linearGradient>
<linearGradient id="paint5_linear_276_36" x1="49.7059" y1="1151.91" x2="-0.95528" y2="1184.86" gradientUnits="userSpaceOnUse">
<stop stop-color="#FDC221"/>
<stop offset="0.109375" stop-color="#F55F29"/>
<stop offset="0.395833" stop-color="#A916EB"/>
<stop offset="0.706854" stop-color="#590FFE"/>
<stop offset="1" stop-color="#1DC6E8"/>
</linearGradient>
<linearGradient id="paint6_linear_276_36" x1="49.7059" y1="1909.91" x2="-0.95528" y2="1942.86" gradientUnits="userSpaceOnUse">
<stop stop-color="#FDC221"/>
<stop offset="0.109375" stop-color="#F55F29"/>
<stop offset="0.395833" stop-color="#A916EB"/>
<stop offset="0.706854" stop-color="#590FFE"/>
<stop offset="1" stop-color="#1DC6E8"/>
</linearGradient>
</defs>
</svg>
